<svg width="243" height="61" viewBox="0 0 243 61" fill="none" xmlns="http://www.w3.org/2000/svg">
<path d="M139.594 18.024C145.874 18.024 149.41 21.877 149.41 28.843C149.418 30.2412 149.294 31.637 149.04 33.012H135.368C135.738 36.443 137.427 37.974 140.645 37.974C142.936 37.8648 145.196 37.402 147.345 36.602L149.087 41.668C146.348 42.8302 143.407 43.4402 140.432 43.463C132.99 43.463 128.98 39.346 128.98 30.85C128.982 22.616 132.729 18.024 139.594 18.024ZM143.235 28.157C143.135 25.096 141.969 23.513 139.435 23.513C136.743 23.513 135.635 25.307 135.371 28.157H143.235Z" fill="#39007F"/>
<path d="M154.419 18.552H158.848L159.534 21.296C160.382 20.2704 161.446 19.4452 162.65 18.8795C163.855 18.3138 165.169 18.0216 166.5 18.024C167.456 18.0332 168.409 18.1212 169.35 18.287L168.928 23.987C168.055 23.8503 167.173 23.7798 166.289 23.776C165.26 23.7001 164.227 23.8393 163.254 24.1847C162.282 24.53 161.392 25.074 160.642 25.782V42.934H154.414L154.419 18.552Z" fill="#39007F"/>
<path d="M171.044 30.954C171.044 22.354 174.791 18.024 181.544 18.024C182.943 18.0465 184.338 18.1877 185.713 18.446V8.946H191.941V42.934H187.455L186.822 41.297C185.079 42.7528 182.864 43.5222 180.594 43.461C174.685 43.462 171.044 39.451 171.044 30.954ZM185.715 36.97V23.724C184.603 23.497 183.472 23.3731 182.337 23.354C178.59 23.354 177.376 25.465 177.376 30.849C177.376 36.073 178.484 38.079 181.651 38.079C183.079 38.0723 184.481 37.6902 185.715 36.971V36.97Z" fill="#39007F"/>
<path d="M207.456 18.024C213.736 18.024 217.272 21.877 217.272 28.843C217.28 30.2412 217.156 31.637 216.902 33.012H203.236C203.606 36.443 205.294 37.974 208.513 37.974C210.804 37.8648 213.064 37.402 215.213 36.602L216.956 41.667C214.217 42.8292 211.276 43.4392 208.301 43.462C200.859 43.462 196.849 39.345 196.849 30.849C196.85 22.616 200.597 18.024 207.456 18.024ZM211.097 28.157C210.997 25.096 209.831 23.513 207.297 23.513C204.605 23.513 203.497 25.307 203.234 28.157H211.097Z" fill="#39007F"/>
<path d="M219.912 18.552H226.14C227.618 24.727 229.517 31.852 231.364 37.341H231.579C233.426 31.852 235.326 24.727 236.751 18.552H242.873C240.973 26.521 237.754 37.604 235.485 42.935H227.305C225.032 37.604 221.812 26.521 219.912 18.552Z" fill="#39007F"/>
<path d="M122.131 18.544L116.996 38.059C116.18 38.2128 115.351 38.2775 114.521 38.252C111.935 38.252 110.985 36.881 110.985 34.506V18.544H104.757V35.297C104.757 40.047 107.132 43.741 112.885 43.741C113.794 43.743 114.7 43.6383 115.585 43.429L113.085 52.929H119.313L128.364 18.549L122.131 18.544Z" fill="#39007F"/>
<path d="M80.322 8.933H86.55V19.598C88.4225 18.5576 90.5298 18.0127 92.672 18.015C98.425 18.015 100.799 21.709 100.799 26.459V42.925H94.571V27.246C94.571 24.871 93.621 23.499 91.035 23.499C89.4723 23.5506 87.9404 23.947 86.549 24.66V42.92H80.321L80.322 8.933Z" fill="#39007F"/>
<path d="M42.5 60.509C41.8334 60.4685 41.2089 60.1698 40.7589 59.6763C40.3089 59.1829 40.069 58.5335 40.09 57.866C40.09 56.423 41.117 55.707 41.117 53.658C41.0958 52.5821 40.6524 51.5577 39.8825 50.8058C39.1127 50.0539 38.078 49.6348 37.002 49.639H16.572C12.2953 49.639 8.19388 47.9401 5.16986 44.9161C2.14584 41.8921 0.44696 37.7906 0.44696 33.514V6.26099C0.447223 5.54911 0.587809 4.84428 0.860657 4.18677C1.1335 3.52926 1.53327 2.93197 2.03711 2.42906C2.54095 1.92615 3.13898 1.52748 3.797 1.25584C4.45501 0.98421 5.16013 0.844942 5.87201 0.845993H6.03998L60.1 0.837997C60.812 0.838128 61.517 0.978597 62.1747 1.25137C62.8324 1.52415 63.4298 1.92388 63.9329 2.42772C64.436 2.93156 64.8349 3.52961 65.1067 4.1877C65.3785 4.84578 65.5179 5.55098 65.517 6.26299C65.5212 7.08653 65.4146 7.9069 65.2 8.702C63.952 13.464 57.216 39.168 54.779 48.302C53.792 51.997 49.429 60.509 42.5 60.509Z" fill="#8623D5"/>
<path d="M30.919 35.41C24.1181 35.4257 17.5856 32.758 12.74 27.986L15.54 25.126C19.6459 29.1506 25.1661 31.4048 30.9155 31.4048C36.6649 31.4048 42.1851 29.1506 46.291 25.126L49.091 27.986C44.247 32.7561 37.7174 35.4237 30.919 35.41Z" fill="white"/>
<path d="M38.019 22.166C39.6692 22.166 41.007 20.8282 41.007 19.178C41.007 17.5278 39.6692 16.19 38.019 16.19C36.3688 16.19 35.031 17.5278 35.031 19.178C35.031 20.8282 36.3688 22.166 38.019 22.166Z" fill="white"/>
<path d="M23.82 22.239C25.4702 22.239 26.808 20.9012 26.808 19.251C26.808 17.6008 25.4702 16.263 23.82 16.263C22.1698 16.263 20.832 17.6008 20.832 19.251C20.832 20.9012 22.1698 22.239 23.82 22.239Z" fill="white"/>
</svg>
