<svg width="1440" height="960" viewBox="0 0 1440 960" fill="none" xmlns="http://www.w3.org/2000/svg">
<g clip-path="url(#clip0_2_30)">
<rect width="1440" height="960" fill="white"/>
<g clip-path="url(#clip1_2_30)">
<path d="M642.29 95.9612C628.809 95.9612 622 98.6333 622 112.5C622 126.367 628.809 129.039 642.29 129.039C655.77 129.039 662.579 126.367 662.579 112.5C662.579 98.6333 655.77 95.9612 642.29 95.9612ZM642.29 120.331C631.38 120.331 625.866 118.505 625.866 109.019C625.866 99.5343 631.38 97.7015 642.29 97.7015C653.199 97.7015 658.713 99.5281 658.713 109.013C658.713 118.498 653.199 120.325 642.29 120.325V120.331Z" fill="black"/>
<path d="M625.761 95.9611C627.693 95.9611 629.255 94.3998 629.255 92.4806C629.255 90.5613 627.687 89 625.761 89C623.834 89 622.266 90.5613 622.266 92.4806C622.266 94.3998 623.834 95.9611 625.761 95.9611Z" fill="black"/>
<path d="M637.538 108.106C638.771 108.341 639.83 107.285 639.595 106.057C639.464 105.378 638.907 104.817 638.219 104.687C636.986 104.453 635.927 105.508 636.162 106.736C636.292 107.415 636.85 107.977 637.538 108.106Z" fill="black"/>
<path d="M646.36 108.106C647.593 108.341 648.652 107.285 648.417 106.057C648.287 105.378 647.729 104.817 647.041 104.687C645.808 104.453 644.749 105.508 644.984 106.736C645.115 107.415 645.672 107.977 646.36 108.106Z" fill="black"/>
<path d="M642.29 113.173C638.572 113.173 635.072 111.729 632.445 109.112L630.878 110.673C633.926 113.71 637.978 115.382 642.29 115.382C646.601 115.382 650.653 113.71 653.701 110.673L652.134 109.112C649.501 111.735 646.007 113.173 642.29 113.173Z" fill="black"/>
<path d="M653.943 136C655.312 136 656.08 134.315 655.157 133.279C653.125 130.989 649.278 130.779 642.29 130.779C635.301 130.779 631.46 130.989 629.422 133.279C628.499 134.315 629.267 136 630.636 136H653.943Z" fill="black"/>
<path d="M683.767 114.345L686.313 115.573C688.742 116.727 690.594 118.221 690.594 121.257C690.594 124.676 687.893 127.132 683.538 127.132C679.182 127.132 677.057 124.713 676.364 122.022L679.567 120.257C679.913 121.911 681.301 123.639 683.655 123.639C685.316 123.639 686.468 122.794 686.468 121.22C686.468 120.109 685.7 119.375 683.847 118.529L681.574 117.455C679.145 116.345 677.256 114.956 677.256 111.692C677.256 108.618 679.994 106.082 683.699 106.082C687.404 106.082 689.56 108.081 690.6 110.538L687.633 112.228C686.976 110.692 685.669 109.501 683.779 109.501C682.237 109.501 681.159 110.346 681.159 111.655C681.159 112.846 681.927 113.5 683.779 114.345H683.767Z" fill="black"/>
<path d="M703.778 106.088C707.328 106.088 709.911 107.779 710.871 109.779H710.989C710.952 109.359 710.908 108.859 710.908 107.822V106.711H714.725V126.521H710.908V125.102C710.908 124.219 710.946 123.639 710.989 123.102H710.871C709.831 125.447 707.092 127.138 703.623 127.138C697.607 127.138 693.599 122.72 693.599 116.61C693.599 110.501 697.843 106.088 703.778 106.088ZM710.76 116.573C710.76 112.58 708.059 109.735 704.28 109.735C700.5 109.735 697.799 112.58 697.799 116.573C697.799 120.566 700.575 123.411 704.28 123.411C707.984 123.411 710.76 120.529 710.76 116.573Z" fill="black"/>
<path d="M735.169 112.617C734.011 110.926 732.239 109.735 729.655 109.735C725.913 109.735 723.256 112.58 723.256 116.573C723.256 120.566 725.913 123.411 729.655 123.411C732.313 123.411 734.166 122.102 735.287 120.375L737.753 122.874C736.21 125.33 733.28 127.138 729.655 127.138C723.448 127.138 719.012 122.646 719.012 116.61C719.012 110.575 723.559 106.088 729.655 106.088C733.088 106.088 735.863 107.551 737.715 110.081L735.169 112.617Z" fill="black"/>
<path d="M741.631 104.804C741.631 100.886 744.815 97.7137 748.749 97.7137H750.961V101.25H749.078C747.262 101.25 745.794 102.712 745.794 104.521V106.705H750.806V110.315H745.794V126.527H741.631V104.804Z" fill="black"/>
<path d="M754.944 97.7137H759.108V120.43C759.108 121.781 760.204 122.874 761.561 122.874H764.083V126.521H760.88C757.602 126.521 754.938 123.874 754.938 120.603V97.7137H754.944Z" fill="black"/>
<path d="M809.054 127.286C806.749 127.286 804.854 125.564 804.649 123.275L803.478 110.248C803.441 109.822 803.088 109.501 802.661 109.501C802.202 109.501 801.849 109.822 801.812 110.248L800.641 123.275C800.436 125.564 798.541 127.286 796.236 127.286C794.185 127.286 792.42 125.898 791.936 123.917L787.29 106.625H791.453L795.431 123.077C795.517 123.448 795.852 123.707 796.23 123.707C796.657 123.707 797.01 123.386 797.048 122.96L798.219 109.933C798.423 107.643 800.319 105.922 802.623 105.922C804.928 105.922 806.849 107.649 807.059 109.933L808.23 122.96C808.267 123.386 808.62 123.707 809.048 123.707C809.432 123.707 809.76 123.448 809.847 123.077L813.824 106.625H817.988L813.341 123.917C812.858 125.904 811.092 127.292 809.042 127.292L809.054 127.286Z" fill="black"/>
<path d="M765.588 116.61C765.588 110.544 770.061 106.088 776.157 106.088C782.253 106.088 786.763 110.544 786.763 116.61C786.763 122.676 782.253 127.138 776.157 127.138C770.061 127.138 765.588 122.646 765.588 116.61ZM782.52 116.573C782.52 112.58 779.899 109.735 776.157 109.735C772.415 109.735 769.795 112.58 769.795 116.573C769.795 120.566 772.459 123.411 776.157 123.411C779.856 123.411 782.52 120.529 782.52 116.573Z" fill="black"/>
</g>
<path d="M529.517 368V350.545H541.278V353.588H533.207V357.747H540.673V360.79H533.207V364.957H541.312V368H529.517ZM547.775 360.432V368H544.144V354.909H547.604V357.219H547.758C548.048 356.457 548.533 355.855 549.215 355.412C549.897 354.963 550.724 354.739 551.695 354.739C552.604 354.739 553.397 354.938 554.073 355.335C554.749 355.733 555.275 356.301 555.65 357.04C556.025 357.773 556.212 358.648 556.212 359.665V368H552.582V360.312C552.587 359.511 552.383 358.886 551.968 358.438C551.553 357.983 550.982 357.756 550.255 357.756C549.766 357.756 549.335 357.861 548.96 358.071C548.59 358.281 548.3 358.588 548.09 358.991C547.886 359.389 547.781 359.869 547.775 360.432ZM566.037 354.909V357.636H558.153V354.909H566.037ZM559.943 351.773H563.574V363.977C563.574 364.312 563.625 364.574 563.727 364.761C563.83 364.943 563.972 365.071 564.153 365.145C564.341 365.219 564.557 365.256 564.801 365.256C564.972 365.256 565.142 365.241 565.312 365.213C565.483 365.179 565.614 365.153 565.705 365.136L566.276 367.838C566.094 367.895 565.838 367.96 565.509 368.034C565.179 368.114 564.778 368.162 564.307 368.179C563.432 368.213 562.665 368.097 562.006 367.83C561.352 367.562 560.844 367.148 560.48 366.585C560.116 366.023 559.938 365.312 559.943 364.455V351.773ZM568.402 368V354.909H571.922V357.193H572.058C572.297 356.381 572.697 355.767 573.26 355.352C573.822 354.932 574.47 354.722 575.203 354.722C575.385 354.722 575.581 354.733 575.791 354.756C576.001 354.778 576.186 354.81 576.345 354.849V358.071C576.175 358.02 575.939 357.974 575.638 357.935C575.337 357.895 575.061 357.875 574.811 357.875C574.277 357.875 573.8 357.991 573.379 358.224C572.964 358.452 572.635 358.77 572.391 359.179C572.152 359.588 572.033 360.06 572.033 360.594V368H568.402ZM581.58 368.247C580.745 368.247 580.001 368.102 579.347 367.812C578.694 367.517 578.177 367.082 577.796 366.509C577.421 365.929 577.234 365.207 577.234 364.344C577.234 363.616 577.367 363.006 577.634 362.511C577.901 362.017 578.265 361.619 578.725 361.318C579.185 361.017 579.708 360.79 580.293 360.636C580.884 360.483 581.504 360.375 582.151 360.312C582.913 360.233 583.526 360.159 583.992 360.091C584.458 360.017 584.796 359.909 585.006 359.767C585.217 359.625 585.322 359.415 585.322 359.136V359.085C585.322 358.545 585.151 358.128 584.81 357.832C584.475 357.537 583.998 357.389 583.379 357.389C582.725 357.389 582.205 357.534 581.819 357.824C581.433 358.108 581.177 358.466 581.052 358.898L577.694 358.625C577.864 357.83 578.2 357.142 578.7 356.562C579.2 355.977 579.844 355.528 580.634 355.216C581.43 354.898 582.35 354.739 583.396 354.739C584.123 354.739 584.819 354.824 585.484 354.994C586.154 355.165 586.748 355.429 587.265 355.787C587.788 356.145 588.2 356.605 588.501 357.168C588.802 357.724 588.952 358.392 588.952 359.17V368H585.509V366.185H585.407C585.197 366.594 584.915 366.955 584.563 367.267C584.211 367.574 583.788 367.815 583.293 367.991C582.799 368.162 582.228 368.247 581.58 368.247ZM582.62 365.741C583.154 365.741 583.626 365.636 584.035 365.426C584.444 365.21 584.765 364.92 584.998 364.557C585.231 364.193 585.347 363.781 585.347 363.321V361.932C585.234 362.006 585.077 362.074 584.879 362.136C584.685 362.193 584.467 362.247 584.222 362.298C583.978 362.344 583.734 362.386 583.489 362.426C583.245 362.46 583.023 362.491 582.825 362.52C582.398 362.582 582.026 362.682 581.708 362.818C581.39 362.955 581.143 363.139 580.967 363.372C580.79 363.599 580.702 363.884 580.702 364.224C580.702 364.719 580.881 365.097 581.239 365.358C581.603 365.614 582.063 365.741 582.62 365.741ZM591.769 368V354.909H595.289V357.193H595.425C595.664 356.381 596.065 355.767 596.627 355.352C597.19 354.932 597.837 354.722 598.57 354.722C598.752 354.722 598.948 354.733 599.158 354.756C599.369 354.778 599.553 354.81 599.712 354.849V358.071C599.542 358.02 599.306 357.974 599.005 357.935C598.704 357.895 598.428 357.875 598.178 357.875C597.644 357.875 597.167 357.991 596.746 358.224C596.332 358.452 596.002 358.77 595.758 359.179C595.519 359.588 595.4 360.06 595.4 360.594V368H591.769Z" fill="black"/>
<path d="M545.409 424V412.364H552.432V413.614H546.818V417.545H552.068V418.795H546.818V422.75H552.523V424H545.409ZM559.79 418.386V419.636H554.699V418.386H559.79ZM562.149 424V415.273H563.445V416.636H563.558C563.74 416.17 564.034 415.809 564.439 415.551C564.844 415.29 565.331 415.159 565.899 415.159C566.475 415.159 566.954 415.29 567.337 415.551C567.723 415.809 568.024 416.17 568.24 416.636H568.331C568.554 416.186 568.89 415.828 569.337 415.562C569.784 415.294 570.32 415.159 570.945 415.159C571.725 415.159 572.363 415.403 572.859 415.892C573.356 416.377 573.604 417.133 573.604 418.159V424H572.263V418.159C572.263 417.515 572.087 417.055 571.734 416.778C571.382 416.502 570.967 416.364 570.49 416.364C569.876 416.364 569.401 416.549 569.064 416.92C568.727 417.288 568.558 417.754 568.558 418.318V424H567.195V418.023C567.195 417.527 567.034 417.127 566.712 416.824C566.39 416.517 565.975 416.364 565.467 416.364C565.119 416.364 564.793 416.456 564.49 416.642C564.191 416.828 563.948 417.085 563.763 417.415C563.581 417.741 563.49 418.117 563.49 418.545V424H562.149ZM578.624 424.205C578.071 424.205 577.569 424.1 577.118 423.892C576.667 423.68 576.309 423.375 576.044 422.977C575.779 422.576 575.646 422.091 575.646 421.523C575.646 421.023 575.745 420.617 575.942 420.307C576.139 419.992 576.402 419.746 576.732 419.568C577.061 419.39 577.425 419.258 577.822 419.17C578.224 419.08 578.627 419.008 579.033 418.955C579.563 418.886 579.993 418.835 580.322 418.801C580.656 418.763 580.898 418.701 581.05 418.614C581.205 418.527 581.283 418.375 581.283 418.159V418.114C581.283 417.553 581.129 417.117 580.822 416.807C580.519 416.496 580.059 416.341 579.442 416.341C578.802 416.341 578.3 416.481 577.936 416.761C577.572 417.042 577.317 417.341 577.169 417.659L575.896 417.205C576.124 416.674 576.427 416.261 576.805 415.966C577.188 415.667 577.605 415.458 578.055 415.341C578.51 415.22 578.957 415.159 579.396 415.159C579.677 415.159 579.999 415.193 580.362 415.261C580.73 415.326 581.084 415.46 581.425 415.665C581.769 415.869 582.055 416.178 582.283 416.591C582.51 417.004 582.624 417.557 582.624 418.25V424H581.283V422.818H581.214C581.124 423.008 580.972 423.21 580.76 423.426C580.548 423.642 580.266 423.826 579.913 423.977C579.561 424.129 579.131 424.205 578.624 424.205ZM578.828 423C579.358 423 579.805 422.896 580.169 422.688C580.536 422.479 580.813 422.21 580.999 421.881C581.188 421.551 581.283 421.205 581.283 420.841V419.614C581.226 419.682 581.101 419.744 580.908 419.801C580.718 419.854 580.499 419.902 580.249 419.943C580.002 419.981 579.762 420.015 579.527 420.045C579.296 420.072 579.108 420.095 578.964 420.114C578.616 420.159 578.29 420.233 577.987 420.335C577.688 420.434 577.446 420.583 577.26 420.784C577.078 420.981 576.987 421.25 576.987 421.591C576.987 422.057 577.16 422.409 577.504 422.648C577.853 422.883 578.294 423 578.828 423ZM585.071 424V415.273H586.412V424H585.071ZM585.753 413.818C585.491 413.818 585.266 413.729 585.077 413.551C584.891 413.373 584.798 413.159 584.798 412.909C584.798 412.659 584.891 412.445 585.077 412.267C585.266 412.089 585.491 412 585.753 412C586.014 412 586.238 412.089 586.423 412.267C586.613 412.445 586.707 412.659 586.707 412.909C586.707 413.159 586.613 413.373 586.423 413.551C586.238 413.729 586.014 413.818 585.753 413.818ZM590.209 412.364V424H588.868V412.364H590.209Z" fill="#868E96"/>
<rect x="528.5" y="390.5" width="383" height="55" rx="7.5" stroke="#CED4DA"/>
<path d="M551.773 487.273C551.705 486.697 551.428 486.25 550.943 485.932C550.458 485.614 549.864 485.455 549.159 485.455C548.644 485.455 548.193 485.538 547.807 485.705C547.424 485.871 547.125 486.1 546.909 486.392C546.697 486.684 546.591 487.015 546.591 487.386C546.591 487.697 546.665 487.964 546.812 488.188C546.964 488.407 547.157 488.591 547.392 488.739C547.627 488.883 547.873 489.002 548.131 489.097C548.388 489.187 548.625 489.261 548.841 489.318L550.023 489.636C550.326 489.716 550.663 489.826 551.034 489.966C551.409 490.106 551.767 490.297 552.108 490.54C552.453 490.778 552.737 491.085 552.96 491.46C553.184 491.835 553.295 492.295 553.295 492.841C553.295 493.47 553.131 494.038 552.801 494.545C552.475 495.053 551.998 495.456 551.369 495.756C550.744 496.055 549.985 496.205 549.091 496.205C548.258 496.205 547.536 496.07 546.926 495.801C546.32 495.532 545.843 495.157 545.494 494.676C545.15 494.195 544.955 493.636 544.909 493H546.364C546.402 493.439 546.549 493.803 546.807 494.091C547.068 494.375 547.398 494.587 547.795 494.727C548.197 494.864 548.629 494.932 549.091 494.932C549.629 494.932 550.112 494.845 550.54 494.67C550.968 494.492 551.307 494.246 551.557 493.932C551.807 493.614 551.932 493.242 551.932 492.818C551.932 492.432 551.824 492.117 551.608 491.875C551.392 491.633 551.108 491.436 550.756 491.284C550.403 491.133 550.023 491 549.614 490.886L548.182 490.477C547.273 490.216 546.553 489.843 546.023 489.358C545.492 488.873 545.227 488.239 545.227 487.455C545.227 486.803 545.403 486.235 545.756 485.75C546.112 485.261 546.589 484.883 547.188 484.614C547.79 484.341 548.462 484.205 549.205 484.205C549.955 484.205 550.621 484.339 551.205 484.608C551.788 484.873 552.25 485.237 552.591 485.699C552.936 486.161 553.117 486.686 553.136 487.273H551.773ZM559.089 496.182C558.249 496.182 557.523 495.996 556.913 495.625C556.307 495.25 555.839 494.727 555.51 494.057C555.184 493.383 555.021 492.598 555.021 491.705C555.021 490.811 555.184 490.023 555.51 489.341C555.839 488.655 556.298 488.121 556.885 487.739C557.476 487.352 558.165 487.159 558.953 487.159C559.408 487.159 559.857 487.235 560.3 487.386C560.743 487.538 561.146 487.784 561.51 488.125C561.874 488.462 562.163 488.909 562.379 489.466C562.595 490.023 562.703 490.708 562.703 491.523V492.091H555.976V490.932H561.339C561.339 490.439 561.241 490 561.044 489.614C560.851 489.227 560.574 488.922 560.214 488.699C559.858 488.475 559.438 488.364 558.953 488.364C558.419 488.364 557.957 488.496 557.567 488.761C557.18 489.023 556.883 489.364 556.675 489.784C556.466 490.205 556.362 490.655 556.362 491.136V491.909C556.362 492.568 556.476 493.127 556.703 493.585C556.934 494.04 557.254 494.386 557.663 494.625C558.072 494.86 558.548 494.977 559.089 494.977C559.442 494.977 559.76 494.928 560.044 494.83C560.332 494.727 560.58 494.576 560.788 494.375C560.997 494.17 561.158 493.917 561.271 493.614L562.567 493.977C562.43 494.417 562.201 494.803 561.879 495.136C561.557 495.466 561.16 495.723 560.686 495.909C560.213 496.091 559.68 496.182 559.089 496.182ZM566.084 490.75V496H564.743V487.273H566.038V488.636H566.152C566.357 488.193 566.667 487.837 567.084 487.568C567.5 487.295 568.038 487.159 568.697 487.159C569.288 487.159 569.805 487.28 570.249 487.523C570.692 487.761 571.036 488.125 571.283 488.614C571.529 489.098 571.652 489.712 571.652 490.455V496H570.311V490.545C570.311 489.86 570.133 489.326 569.777 488.943C569.421 488.557 568.932 488.364 568.311 488.364C567.883 488.364 567.5 488.456 567.163 488.642C566.83 488.828 566.567 489.098 566.374 489.455C566.18 489.811 566.084 490.242 566.084 490.75ZM575.443 490.75V496H574.102V484.364H575.443V488.636H575.557C575.761 488.186 576.068 487.828 576.477 487.562C576.89 487.294 577.439 487.159 578.125 487.159C578.72 487.159 579.241 487.278 579.688 487.517C580.134 487.752 580.481 488.114 580.727 488.602C580.977 489.087 581.102 489.705 581.102 490.455V496H579.761V490.545C579.761 489.852 579.581 489.316 579.222 488.938C578.866 488.555 578.371 488.364 577.739 488.364C577.299 488.364 576.905 488.456 576.557 488.642C576.212 488.828 575.939 489.098 575.739 489.455C575.542 489.811 575.443 490.242 575.443 490.75ZM586.124 496.205C585.571 496.205 585.069 496.1 584.618 495.892C584.167 495.68 583.809 495.375 583.544 494.977C583.279 494.576 583.146 494.091 583.146 493.523C583.146 493.023 583.245 492.617 583.442 492.307C583.639 491.992 583.902 491.746 584.232 491.568C584.561 491.39 584.925 491.258 585.322 491.17C585.724 491.08 586.127 491.008 586.533 490.955C587.063 490.886 587.493 490.835 587.822 490.801C588.156 490.763 588.398 490.701 588.55 490.614C588.705 490.527 588.783 490.375 588.783 490.159V490.114C588.783 489.553 588.629 489.117 588.322 488.807C588.019 488.496 587.559 488.341 586.942 488.341C586.302 488.341 585.8 488.481 585.436 488.761C585.072 489.042 584.817 489.341 584.669 489.659L583.396 489.205C583.624 488.674 583.927 488.261 584.305 487.966C584.688 487.667 585.105 487.458 585.555 487.341C586.01 487.22 586.457 487.159 586.896 487.159C587.177 487.159 587.499 487.193 587.862 487.261C588.23 487.326 588.584 487.46 588.925 487.665C589.269 487.869 589.555 488.178 589.783 488.591C590.01 489.004 590.124 489.557 590.124 490.25V496H588.783V494.818H588.714C588.624 495.008 588.472 495.21 588.26 495.426C588.048 495.642 587.766 495.826 587.413 495.977C587.061 496.129 586.631 496.205 586.124 496.205ZM586.328 495C586.858 495 587.305 494.896 587.669 494.688C588.036 494.479 588.313 494.21 588.499 493.881C588.688 493.551 588.783 493.205 588.783 492.841V491.614C588.726 491.682 588.601 491.744 588.408 491.801C588.218 491.854 587.999 491.902 587.749 491.943C587.502 491.981 587.262 492.015 587.027 492.045C586.796 492.072 586.608 492.095 586.464 492.114C586.116 492.159 585.79 492.233 585.487 492.335C585.188 492.434 584.946 492.583 584.76 492.784C584.578 492.981 584.487 493.25 584.487 493.591C584.487 494.057 584.66 494.409 585.004 494.648C585.353 494.883 585.794 495 586.328 495Z" fill="#868E96"/>
<rect x="528.5" y="462.5" width="383" height="55" rx="7.5" stroke="#CED4DA"/>
<path d="M528 542C528 537.582 531.582 534 536 534H904C908.418 534 912 537.582 912 542V574C912 578.418 908.418 582 904 582H536C531.582 582 528 578.418 528 574V542Z" fill="black"/>
<path d="M694.004 563.5V553.318H697.822C698.605 553.318 699.261 553.464 699.791 553.756C700.325 554.047 700.728 554.448 700.999 554.959C701.274 555.466 701.412 556.043 701.412 556.689C701.412 557.342 701.274 557.922 700.999 558.429C700.724 558.936 700.318 559.335 699.781 559.627C699.244 559.915 698.583 560.06 697.798 560.06H695.267V558.543H697.549C698.006 558.543 698.381 558.464 698.673 558.305C698.964 558.146 699.18 557.927 699.319 557.648C699.461 557.37 699.533 557.05 699.533 556.689C699.533 556.328 699.461 556.009 699.319 555.734C699.18 555.459 698.963 555.246 698.668 555.093C698.376 554.937 698 554.859 697.539 554.859H695.849V563.5H694.004ZM702.684 563.5V555.864H704.43V557.136H704.509C704.648 556.696 704.887 556.356 705.225 556.117C705.566 555.875 705.956 555.754 706.393 555.754C706.493 555.754 706.604 555.759 706.726 555.769C706.852 555.776 706.957 555.787 707.04 555.804V557.46C706.963 557.433 706.842 557.41 706.677 557.39C706.514 557.367 706.357 557.355 706.204 557.355C705.876 557.355 705.581 557.426 705.319 557.569C705.061 557.708 704.857 557.902 704.708 558.151C704.559 558.399 704.484 558.686 704.484 559.011V563.5H702.684ZM711.002 563.649C710.256 563.649 709.61 563.485 709.063 563.157C708.516 562.829 708.092 562.37 707.79 561.78C707.492 561.19 707.343 560.5 707.343 559.712C707.343 558.923 707.492 558.232 707.79 557.638C708.092 557.045 708.516 556.585 709.063 556.256C709.61 555.928 710.256 555.764 711.002 555.764C711.748 555.764 712.394 555.928 712.941 556.256C713.488 556.585 713.91 557.045 714.208 557.638C714.51 558.232 714.661 558.923 714.661 559.712C714.661 560.5 714.51 561.19 714.208 561.78C713.91 562.37 713.488 562.829 712.941 563.157C712.394 563.485 711.748 563.649 711.002 563.649ZM711.012 562.207C711.416 562.207 711.754 562.096 712.026 561.874C712.298 561.649 712.5 561.347 712.632 560.969C712.768 560.592 712.836 560.171 712.836 559.707C712.836 559.239 712.768 558.817 712.632 558.439C712.5 558.058 712.298 557.754 712.026 557.529C711.754 557.304 711.416 557.191 711.012 557.191C710.597 557.191 710.253 557.304 709.978 557.529C709.706 557.754 709.502 558.058 709.366 558.439C709.234 558.817 709.167 559.239 709.167 559.707C709.167 560.171 709.234 560.592 709.366 560.969C709.502 561.347 709.706 561.649 709.978 561.874C710.253 562.096 710.597 562.207 711.012 562.207ZM710.311 554.859L711.424 552.587H713.184L711.658 554.859H710.311ZM717.123 555.864L718.664 558.683L720.23 555.864H722.134L719.832 559.682L722.174 563.5H720.28L718.664 560.751L717.063 563.5H715.154L717.481 559.682L715.214 555.864H717.123ZM723.276 563.5V555.864H725.076V563.5H723.276ZM724.181 554.78C723.896 554.78 723.651 554.685 723.445 554.496C723.24 554.304 723.137 554.074 723.137 553.805C723.137 553.534 723.24 553.303 723.445 553.114C723.651 552.922 723.896 552.826 724.181 552.826C724.469 552.826 724.715 552.922 724.917 553.114C725.122 553.303 725.225 553.534 725.225 553.805C725.225 554.074 725.122 554.304 724.917 554.496C724.715 554.685 724.469 554.78 724.181 554.78ZM726.677 563.5V555.864H728.397V557.161H728.486C728.645 556.724 728.909 556.382 729.277 556.137C729.645 555.888 730.084 555.764 730.594 555.764C731.111 555.764 731.547 555.89 731.902 556.142C732.26 556.391 732.512 556.73 732.657 557.161H732.737C732.906 556.737 733.191 556.399 733.592 556.147C733.997 555.892 734.475 555.764 735.029 555.764C735.732 555.764 736.305 555.986 736.749 556.43C737.193 556.875 737.415 557.522 737.415 558.374V563.5H735.611V558.653C735.611 558.179 735.485 557.832 735.233 557.614C734.981 557.392 734.673 557.281 734.308 557.281C733.874 557.281 733.534 557.416 733.289 557.688C733.047 557.957 732.926 558.306 732.926 558.737V563.5H731.161V558.578C731.161 558.184 731.042 557.869 730.803 557.634C730.568 557.398 730.26 557.281 729.878 557.281C729.62 557.281 729.385 557.347 729.172 557.479C728.96 557.609 728.791 557.793 728.665 558.031C728.539 558.267 728.476 558.542 728.476 558.857V563.5H726.677ZM742.322 563.649C741.576 563.649 740.93 563.485 740.383 563.157C739.836 562.829 739.412 562.37 739.11 561.78C738.812 561.19 738.663 560.5 738.663 559.712C738.663 558.923 738.812 558.232 739.11 557.638C739.412 557.045 739.836 556.585 740.383 556.256C740.93 555.928 741.576 555.764 742.322 555.764C743.068 555.764 743.714 555.928 744.261 556.256C744.808 556.585 745.23 557.045 745.529 557.638C745.83 558.232 745.981 558.923 745.981 559.712C745.981 560.5 745.83 561.19 745.529 561.78C745.23 562.37 744.808 562.829 744.261 563.157C743.714 563.485 743.068 563.649 742.322 563.649ZM742.332 562.207C742.736 562.207 743.074 562.096 743.346 561.874C743.618 561.649 743.82 561.347 743.953 560.969C744.089 560.592 744.157 560.171 744.157 559.707C744.157 559.239 744.089 558.817 743.953 558.439C743.82 558.058 743.618 557.754 743.346 557.529C743.074 557.304 742.736 557.191 742.332 557.191C741.918 557.191 741.573 557.304 741.298 557.529C741.026 557.754 740.822 558.058 740.686 558.439C740.554 558.817 740.488 559.239 740.488 559.707C740.488 560.171 740.554 560.592 740.686 560.969C740.822 561.347 741.026 561.649 741.298 561.874C741.573 562.096 741.918 562.207 742.332 562.207Z" fill="white"/>
<path d="M529.651 612H528.358L532.097 601.818H533.369L537.108 612H535.815L532.773 603.429H532.693L529.651 612ZM530.128 608.023H535.338V609.116H530.128V608.023ZM538.617 612V604.364H539.79V612H538.617ZM539.213 603.091C538.985 603.091 538.788 603.013 538.622 602.857C538.459 602.701 538.378 602.514 538.378 602.295C538.378 602.077 538.459 601.889 538.622 601.734C538.788 601.578 538.985 601.5 539.213 601.5C539.442 601.5 539.638 601.578 539.8 601.734C539.966 601.889 540.049 602.077 540.049 602.295C540.049 602.514 539.966 602.701 539.8 602.857C539.638 603.013 539.442 603.091 539.213 603.091ZM543.112 607.406V612H541.939V604.364H543.073V605.557H543.172C543.351 605.169 543.623 604.857 543.987 604.622C544.352 604.384 544.823 604.264 545.399 604.264C545.916 604.264 546.369 604.37 546.757 604.582C547.144 604.791 547.446 605.109 547.661 605.537C547.877 605.961 547.985 606.498 547.985 607.148V612H546.811V607.227C546.811 606.627 546.655 606.16 546.344 605.825C546.032 605.487 545.605 605.318 545.061 605.318C544.687 605.318 544.352 605.399 544.057 605.562C543.765 605.724 543.535 605.961 543.366 606.273C543.197 606.584 543.112 606.962 543.112 607.406ZM553.012 612.159C552.376 612.159 551.814 611.998 551.327 611.677C550.839 611.352 550.458 610.895 550.183 610.305C549.908 609.711 549.771 609.01 549.771 608.202C549.771 607.4 549.908 606.704 550.183 606.114C550.458 605.524 550.841 605.068 551.332 604.746C551.822 604.425 552.389 604.264 553.032 604.264C553.529 604.264 553.922 604.347 554.21 604.513C554.502 604.675 554.724 604.861 554.876 605.07C555.032 605.275 555.153 605.444 555.239 605.577H555.339V601.818H556.512V612H555.379V610.827H555.239C555.153 610.966 555.031 611.142 554.871 611.354C554.712 611.562 554.485 611.75 554.19 611.915C553.895 612.078 553.503 612.159 553.012 612.159ZM553.171 611.105C553.642 611.105 554.04 610.982 554.364 610.737C554.689 610.489 554.936 610.146 555.105 609.708C555.274 609.267 555.359 608.759 555.359 608.182C555.359 607.612 555.276 607.113 555.11 606.685C554.944 606.254 554.699 605.92 554.374 605.681C554.049 605.439 553.648 605.318 553.171 605.318C552.674 605.318 552.26 605.446 551.928 605.701C551.6 605.953 551.353 606.296 551.188 606.73C551.025 607.161 550.944 607.645 550.944 608.182C550.944 608.725 551.027 609.219 551.192 609.663C551.362 610.104 551.61 610.455 551.938 610.717C552.27 610.976 552.681 611.105 553.171 611.105ZM561.071 612.179C560.587 612.179 560.148 612.088 559.754 611.906C559.359 611.72 559.046 611.453 558.814 611.105C558.582 610.754 558.466 610.33 558.466 609.832C558.466 609.395 558.552 609.04 558.724 608.768C558.897 608.493 559.127 608.278 559.415 608.122C559.704 607.966 560.022 607.85 560.37 607.774C560.721 607.695 561.074 607.632 561.429 607.585C561.893 607.526 562.269 607.481 562.558 607.451C562.849 607.418 563.061 607.363 563.194 607.287C563.33 607.211 563.398 607.078 563.398 606.889V606.849C563.398 606.359 563.263 605.978 562.995 605.706C562.73 605.434 562.327 605.298 561.787 605.298C561.227 605.298 560.788 605.421 560.469 605.666C560.151 605.911 559.928 606.173 559.798 606.452L558.685 606.054C558.884 605.59 559.149 605.229 559.48 604.97C559.815 604.708 560.179 604.526 560.574 604.423C560.972 604.317 561.363 604.264 561.747 604.264C561.992 604.264 562.274 604.294 562.592 604.354C562.914 604.41 563.224 604.528 563.522 604.707C563.824 604.886 564.074 605.156 564.273 605.517C564.472 605.878 564.571 606.362 564.571 606.969V612H563.398V610.966H563.338C563.259 611.132 563.126 611.309 562.94 611.498C562.755 611.687 562.508 611.848 562.2 611.98C561.891 612.113 561.515 612.179 561.071 612.179ZM561.25 611.125C561.714 611.125 562.105 611.034 562.423 610.852C562.745 610.669 562.987 610.434 563.149 610.146C563.315 609.857 563.398 609.554 563.398 609.236V608.162C563.348 608.222 563.239 608.276 563.07 608.326C562.904 608.372 562.712 608.414 562.493 608.45C562.277 608.483 562.067 608.513 561.862 608.54C561.659 608.563 561.495 608.583 561.369 608.599C561.064 608.639 560.779 608.704 560.514 608.793C560.252 608.879 560.04 609.01 559.878 609.186C559.719 609.358 559.639 609.594 559.639 609.892C559.639 610.3 559.79 610.608 560.092 610.817C560.397 611.022 560.783 611.125 561.25 611.125ZM571.823 607.406V612H570.65V604.364H571.784V605.557H571.883C572.062 605.169 572.334 604.857 572.698 604.622C573.063 604.384 573.534 604.264 574.11 604.264C574.627 604.264 575.08 604.37 575.468 604.582C575.855 604.791 576.157 605.109 576.372 605.537C576.588 605.961 576.695 606.498 576.695 607.148V612H575.522V607.227C575.522 606.627 575.366 606.16 575.055 605.825C574.743 605.487 574.316 605.318 573.772 605.318C573.398 605.318 573.063 605.399 572.768 605.562C572.476 605.724 572.246 605.961 572.077 606.273C571.908 606.584 571.823 606.962 571.823 607.406ZM581.087 612.179C580.603 612.179 580.164 612.088 579.769 611.906C579.375 611.72 579.062 611.453 578.83 611.105C578.598 610.754 578.482 610.33 578.482 609.832C578.482 609.395 578.568 609.04 578.74 608.768C578.912 608.493 579.143 608.278 579.431 608.122C579.719 607.966 580.038 607.85 580.386 607.774C580.737 607.695 581.09 607.632 581.445 607.585C581.909 607.526 582.285 607.481 582.573 607.451C582.865 607.418 583.077 607.363 583.21 607.287C583.345 607.211 583.413 607.078 583.413 606.889V606.849C583.413 606.359 583.279 605.978 583.011 605.706C582.746 605.434 582.343 605.298 581.803 605.298C581.242 605.298 580.803 605.421 580.485 605.666C580.167 605.911 579.943 606.173 579.814 606.452L578.7 606.054C578.899 605.59 579.164 605.229 579.496 604.97C579.83 604.708 580.195 604.526 580.589 604.423C580.987 604.317 581.378 604.264 581.763 604.264C582.008 604.264 582.29 604.294 582.608 604.354C582.929 604.41 583.239 604.528 583.538 604.707C583.839 604.886 584.089 605.156 584.288 605.517C584.487 605.878 584.587 606.362 584.587 606.969V612H583.413V610.966H583.354C583.274 611.132 583.142 611.309 582.956 611.498C582.77 611.687 582.523 611.848 582.215 611.98C581.907 612.113 581.531 612.179 581.087 612.179ZM581.266 611.125C581.73 611.125 582.121 611.034 582.439 610.852C582.76 610.669 583.002 610.434 583.165 610.146C583.33 609.857 583.413 609.554 583.413 609.236V608.162C583.364 608.222 583.254 608.276 583.085 608.326C582.92 608.372 582.727 608.414 582.509 608.45C582.293 608.483 582.083 608.513 581.877 608.54C581.675 608.563 581.511 608.583 581.385 608.599C581.08 608.639 580.795 608.704 580.53 608.793C580.268 608.879 580.056 609.01 579.893 609.186C579.734 609.358 579.655 609.594 579.655 609.892C579.655 610.3 579.806 610.608 580.107 610.817C580.412 611.022 580.798 611.125 581.266 611.125ZM580.311 603.449L579.396 603.409C579.396 602.902 579.54 602.488 579.829 602.166C580.121 601.841 580.48 601.679 580.908 601.679C581.097 601.679 581.264 601.712 581.41 601.778C581.556 601.841 581.695 601.914 581.827 601.997C581.96 602.08 582.096 602.155 582.235 602.221C582.378 602.284 582.538 602.315 582.717 602.315C582.906 602.315 583.065 602.242 583.195 602.097C583.327 601.947 583.393 601.768 583.393 601.56L584.288 601.639C584.288 602.156 584.143 602.567 583.851 602.872C583.563 603.177 583.205 603.33 582.777 603.33C582.548 603.33 582.359 603.298 582.21 603.235C582.061 603.169 581.929 603.094 581.812 603.011C581.696 602.929 581.574 602.856 581.445 602.793C581.315 602.726 581.156 602.693 580.967 602.693C580.778 602.693 580.621 602.768 580.495 602.917C580.372 603.063 580.311 603.24 580.311 603.449ZM589.83 612.159C589.141 612.159 588.536 611.995 588.016 611.667C587.499 611.339 587.094 610.88 586.803 610.29C586.514 609.7 586.37 609.01 586.37 608.222C586.37 607.426 586.514 606.732 586.803 606.138C587.094 605.545 587.499 605.085 588.016 604.756C588.536 604.428 589.141 604.264 589.83 604.264C590.52 604.264 591.123 604.428 591.64 604.756C592.16 605.085 592.565 605.545 592.853 606.138C593.145 606.732 593.291 607.426 593.291 608.222C593.291 609.01 593.145 609.7 592.853 610.29C592.565 610.88 592.16 611.339 591.64 611.667C591.123 611.995 590.52 612.159 589.83 612.159ZM589.83 611.105C590.354 611.105 590.785 610.971 591.123 610.702C591.461 610.434 591.711 610.081 591.874 609.643C592.036 609.206 592.117 608.732 592.117 608.222C592.117 607.711 592.036 607.236 591.874 606.795C591.711 606.354 591.461 605.998 591.123 605.726C590.785 605.454 590.354 605.318 589.83 605.318C589.307 605.318 588.876 605.454 588.538 605.726C588.2 605.998 587.95 606.354 587.787 606.795C587.625 607.236 587.544 607.711 587.544 608.222C587.544 608.732 587.625 609.206 587.787 609.643C587.95 610.081 588.2 610.434 588.538 610.702C588.876 610.971 589.307 611.105 589.83 611.105ZM602.34 604.364V605.358H598.383V604.364H602.34ZM599.536 602.534H600.71V609.812C600.71 610.144 600.758 610.393 600.854 610.558C600.953 610.721 601.079 610.83 601.232 610.886C601.387 610.939 601.551 610.966 601.724 610.966C601.853 610.966 601.959 610.959 602.042 610.946C602.125 610.929 602.191 610.916 602.241 610.906L602.479 611.96C602.4 611.99 602.289 612.02 602.146 612.05C602.004 612.083 601.823 612.099 601.604 612.099C601.273 612.099 600.948 612.028 600.63 611.886C600.315 611.743 600.053 611.526 599.844 611.234C599.639 610.943 599.536 610.575 599.536 610.131V602.534ZM607.225 612.159C606.489 612.159 605.854 611.997 605.321 611.672C604.79 611.344 604.381 610.886 604.093 610.3C603.808 609.71 603.665 609.024 603.665 608.241C603.665 607.459 603.808 606.77 604.093 606.173C604.381 605.573 604.782 605.106 605.296 604.771C605.813 604.433 606.416 604.264 607.105 604.264C607.503 604.264 607.896 604.33 608.284 604.463C608.672 604.596 609.025 604.811 609.343 605.109C609.661 605.404 609.914 605.795 610.103 606.283C610.292 606.77 610.387 607.37 610.387 608.082V608.58H604.5V607.565H609.194C609.194 607.134 609.107 606.75 608.935 606.412C608.766 606.074 608.524 605.807 608.209 605.612C607.898 605.416 607.53 605.318 607.105 605.318C606.638 605.318 606.234 605.434 605.892 605.666C605.554 605.895 605.294 606.193 605.112 606.561C604.93 606.929 604.838 607.323 604.838 607.744V608.42C604.838 608.997 604.938 609.486 605.137 609.887C605.339 610.285 605.619 610.588 605.977 610.797C606.335 611.002 606.751 611.105 607.225 611.105C607.533 611.105 607.811 611.062 608.06 610.976C608.312 610.886 608.529 610.754 608.711 610.578C608.894 610.399 609.034 610.177 609.134 609.912L610.267 610.23C610.148 610.615 609.948 610.953 609.666 611.244C609.384 611.533 609.036 611.758 608.622 611.92C608.208 612.08 607.742 612.159 607.225 612.159ZM612.172 612V604.364H613.305V605.557H613.404C613.564 605.149 613.82 604.833 614.175 604.607C614.53 604.379 614.956 604.264 615.453 604.264C615.957 604.264 616.376 604.379 616.711 604.607C617.049 604.833 617.312 605.149 617.501 605.557H617.581C617.776 605.162 618.069 604.849 618.461 604.617C618.852 604.382 619.321 604.264 619.868 604.264C620.55 604.264 621.109 604.478 621.543 604.906C621.977 605.33 622.194 605.991 622.194 606.889V612H621.021V606.889C621.021 606.326 620.867 605.923 620.559 605.681C620.25 605.439 619.887 605.318 619.47 605.318C618.933 605.318 618.517 605.481 618.222 605.805C617.927 606.127 617.779 606.535 617.779 607.028V612H616.586V606.77C616.586 606.336 616.445 605.986 616.164 605.721C615.882 605.452 615.519 605.318 615.075 605.318C614.77 605.318 614.485 605.399 614.22 605.562C613.958 605.724 613.746 605.95 613.583 606.238C613.424 606.523 613.345 606.853 613.345 607.227V612H612.172ZM631.379 612.159C630.663 612.159 630.047 611.99 629.53 611.652C629.013 611.314 628.615 610.848 628.337 610.255C628.058 609.662 627.919 608.984 627.919 608.222C627.919 607.446 628.062 606.762 628.347 606.168C628.635 605.572 629.036 605.106 629.55 604.771C630.067 604.433 630.67 604.264 631.359 604.264C631.896 604.264 632.38 604.364 632.811 604.562C633.242 604.761 633.595 605.04 633.87 605.398C634.145 605.756 634.316 606.173 634.382 606.651H633.209C633.119 606.303 632.92 605.994 632.612 605.726C632.307 605.454 631.896 605.318 631.379 605.318C630.922 605.318 630.521 605.437 630.176 605.676C629.835 605.911 629.568 606.245 629.376 606.675C629.187 607.103 629.092 607.605 629.092 608.182C629.092 608.772 629.185 609.286 629.371 609.723C629.56 610.161 629.825 610.5 630.166 610.742C630.511 610.984 630.915 611.105 631.379 611.105C631.684 611.105 631.961 611.052 632.21 610.946C632.458 610.84 632.669 610.688 632.841 610.489C633.013 610.29 633.136 610.051 633.209 609.773H634.382C634.316 610.223 634.152 610.629 633.89 610.991C633.631 611.349 633.288 611.634 632.861 611.846C632.437 612.055 631.943 612.159 631.379 612.159ZM639.2 612.159C638.51 612.159 637.905 611.995 637.385 611.667C636.868 611.339 636.464 610.88 636.172 610.29C635.884 609.7 635.739 609.01 635.739 608.222C635.739 607.426 635.884 606.732 636.172 606.138C636.464 605.545 636.868 605.085 637.385 604.756C637.905 604.428 638.51 604.264 639.2 604.264C639.889 604.264 640.492 604.428 641.009 604.756C641.53 605.085 641.934 605.545 642.222 606.138C642.514 606.732 642.66 607.426 642.66 608.222C642.66 609.01 642.514 609.7 642.222 610.29C641.934 610.88 641.53 611.339 641.009 611.667C640.492 611.995 639.889 612.159 639.2 612.159ZM639.2 611.105C639.723 611.105 640.154 610.971 640.492 610.702C640.83 610.434 641.08 610.081 641.243 609.643C641.405 609.206 641.487 608.732 641.487 608.222C641.487 607.711 641.405 607.236 641.243 606.795C641.08 606.354 640.83 605.998 640.492 605.726C640.154 605.454 639.723 605.318 639.2 605.318C638.676 605.318 638.245 605.454 637.907 605.726C637.569 605.998 637.319 606.354 637.156 606.795C636.994 607.236 636.913 607.711 636.913 608.222C636.913 608.732 636.994 609.206 637.156 609.643C637.319 610.081 637.569 610.434 637.907 610.702C638.245 610.971 638.676 611.105 639.2 611.105ZM645.624 607.406V612H644.451V604.364H645.584V605.557H645.684C645.863 605.169 646.135 604.857 646.499 604.622C646.864 604.384 647.334 604.264 647.911 604.264C648.428 604.264 648.881 604.37 649.268 604.582C649.656 604.791 649.958 605.109 650.173 605.537C650.389 605.961 650.496 606.498 650.496 607.148V612H649.323V607.227C649.323 606.627 649.167 606.16 648.856 605.825C648.544 605.487 648.117 605.318 647.573 605.318C647.198 605.318 646.864 605.399 646.569 605.562C646.277 605.724 646.047 605.961 645.878 606.273C645.709 606.584 645.624 606.962 645.624 607.406ZM655.961 604.364V605.358H652.004V604.364H655.961ZM653.157 602.534H654.331V609.812C654.331 610.144 654.379 610.393 654.475 610.558C654.574 610.721 654.7 610.83 654.853 610.886C655.008 610.939 655.172 610.966 655.345 610.966C655.474 610.966 655.58 610.959 655.663 610.946C655.746 610.929 655.812 610.916 655.862 610.906L656.1 611.96C656.021 611.99 655.91 612.02 655.767 612.05C655.625 612.083 655.444 612.099 655.225 612.099C654.894 612.099 654.569 612.028 654.251 611.886C653.936 611.743 653.674 611.526 653.466 611.234C653.26 610.943 653.157 610.575 653.157 610.131V602.534ZM659.973 612.179C659.489 612.179 659.05 612.088 658.656 611.906C658.261 611.72 657.948 611.453 657.716 611.105C657.484 610.754 657.368 610.33 657.368 609.832C657.368 609.395 657.454 609.04 657.627 608.768C657.799 608.493 658.029 608.278 658.318 608.122C658.606 607.966 658.924 607.85 659.272 607.774C659.624 607.695 659.977 607.632 660.331 607.585C660.795 607.526 661.172 607.481 661.46 607.451C661.752 607.418 661.964 607.363 662.096 607.287C662.232 607.211 662.3 607.078 662.3 606.889V606.849C662.3 606.359 662.166 605.978 661.897 605.706C661.632 605.434 661.23 605.298 660.689 605.298C660.129 605.298 659.69 605.421 659.372 605.666C659.054 605.911 658.83 606.173 658.701 606.452L657.587 606.054C657.786 605.59 658.051 605.229 658.382 604.97C658.717 604.708 659.082 604.526 659.476 604.423C659.874 604.317 660.265 604.264 660.65 604.264C660.895 604.264 661.176 604.294 661.495 604.354C661.816 604.41 662.126 604.528 662.424 604.707C662.726 604.886 662.976 605.156 663.175 605.517C663.374 605.878 663.473 606.362 663.473 606.969V612H662.3V610.966H662.24C662.161 611.132 662.028 611.309 661.843 611.498C661.657 611.687 661.41 611.848 661.102 611.98C660.794 612.113 660.417 612.179 659.973 612.179ZM660.152 611.125C660.616 611.125 661.007 611.034 661.326 610.852C661.647 610.669 661.889 610.434 662.051 610.146C662.217 609.857 662.3 609.554 662.3 609.236V608.162C662.25 608.222 662.141 608.276 661.972 608.326C661.806 608.372 661.614 608.414 661.395 608.45C661.18 608.483 660.969 608.513 660.764 608.54C660.562 608.563 660.398 608.583 660.272 608.599C659.967 608.639 659.682 608.704 659.417 608.793C659.155 608.879 658.943 609.01 658.78 609.186C658.621 609.358 658.542 609.594 658.542 609.892C658.542 610.3 658.692 610.608 658.994 610.817C659.299 611.022 659.685 611.125 660.152 611.125ZM667.146 609.136V609.077C667.153 608.444 667.219 607.94 667.345 607.565C667.471 607.191 667.65 606.888 667.882 606.656C668.114 606.424 668.392 606.21 668.717 606.014C668.913 605.895 669.088 605.754 669.244 605.592C669.4 605.426 669.523 605.235 669.612 605.02C669.705 604.804 669.751 604.566 669.751 604.304C669.751 603.979 669.675 603.697 669.523 603.459C669.37 603.22 669.166 603.036 668.911 602.907C668.656 602.778 668.372 602.713 668.061 602.713C667.789 602.713 667.527 602.769 667.275 602.882C667.023 602.995 666.813 603.172 666.644 603.414C666.475 603.656 666.377 603.973 666.351 604.364H665.098C665.124 603.8 665.27 603.318 665.535 602.917C665.804 602.516 666.157 602.209 666.594 601.997C667.035 601.785 667.524 601.679 668.061 601.679C668.644 601.679 669.151 601.795 669.582 602.027C670.016 602.259 670.351 602.577 670.586 602.982C670.825 603.386 670.944 603.847 670.944 604.364C670.944 604.728 670.888 605.058 670.775 605.353C670.666 605.648 670.507 605.911 670.298 606.143C670.093 606.375 669.844 606.581 669.552 606.76C669.261 606.942 669.027 607.134 668.851 607.337C668.676 607.536 668.548 607.772 668.469 608.048C668.389 608.323 668.346 608.666 668.339 609.077V609.136H667.146ZM667.782 612.08C667.537 612.08 667.327 611.992 667.151 611.816C666.975 611.64 666.888 611.43 666.888 611.185C666.888 610.939 666.975 610.729 667.151 610.553C667.327 610.378 667.537 610.29 667.782 610.29C668.028 610.29 668.238 610.378 668.414 610.553C668.59 610.729 668.677 610.939 668.677 611.185C668.677 611.347 668.636 611.496 668.553 611.632C668.474 611.768 668.366 611.877 668.23 611.96C668.097 612.04 667.948 612.08 667.782 612.08ZM685 605H683.767C683.694 604.645 683.567 604.334 683.385 604.065C683.206 603.797 682.987 603.571 682.728 603.389C682.473 603.204 682.19 603.064 681.878 602.972C681.567 602.879 681.242 602.832 680.904 602.832C680.287 602.832 679.729 602.988 679.228 603.3C678.731 603.611 678.335 604.07 678.04 604.677C677.748 605.283 677.603 606.027 677.603 606.909C677.603 607.791 677.748 608.535 678.04 609.141C678.335 609.748 678.731 610.207 679.228 610.518C679.729 610.83 680.287 610.986 680.904 610.986C681.242 610.986 681.567 610.939 681.878 610.847C682.19 610.754 682.473 610.616 682.728 610.434C682.987 610.248 683.206 610.021 683.385 609.753C683.567 609.481 683.694 609.17 683.767 608.818H685C684.908 609.339 684.739 609.804 684.493 610.215C684.248 610.626 683.943 610.976 683.578 611.264C683.214 611.549 682.805 611.766 682.35 611.915C681.9 612.065 681.417 612.139 680.904 612.139C680.035 612.139 679.263 611.927 678.587 611.503C677.911 611.079 677.379 610.475 676.991 609.693C676.603 608.911 676.409 607.983 676.409 606.909C676.409 605.835 676.603 604.907 676.991 604.125C677.379 603.343 677.911 602.74 678.587 602.315C679.263 601.891 680.035 601.679 680.904 601.679C681.417 601.679 681.9 601.754 682.35 601.903C682.805 602.052 683.214 602.271 683.578 602.559C683.943 602.844 684.248 603.192 684.493 603.603C684.739 604.011 684.908 604.476 685 605ZM686.834 612V604.364H687.967V605.517H688.047C688.186 605.139 688.438 604.833 688.802 604.597C689.167 604.362 689.578 604.244 690.035 604.244C690.122 604.244 690.229 604.246 690.358 604.249C690.488 604.253 690.586 604.258 690.652 604.264V605.457C690.612 605.447 690.521 605.433 690.378 605.413C690.239 605.389 690.092 605.378 689.936 605.378C689.565 605.378 689.233 605.456 688.942 605.612C688.653 605.764 688.425 605.976 688.256 606.248C688.09 606.516 688.007 606.823 688.007 607.168V612H686.834ZM692.043 612V604.364H693.216V612H692.043ZM692.639 603.091C692.411 603.091 692.213 603.013 692.048 602.857C691.885 602.701 691.804 602.514 691.804 602.295C691.804 602.077 691.885 601.889 692.048 601.734C692.213 601.578 692.411 601.5 692.639 601.5C692.868 601.5 693.063 601.578 693.226 601.734C693.392 601.889 693.474 602.077 693.474 602.295C693.474 602.514 693.392 602.701 693.226 602.857C693.063 603.013 692.868 603.091 692.639 603.091ZM697.612 612.179C697.128 612.179 696.689 612.088 696.295 611.906C695.9 611.72 695.587 611.453 695.355 611.105C695.123 610.754 695.007 610.33 695.007 609.832C695.007 609.395 695.093 609.04 695.265 608.768C695.438 608.493 695.668 608.278 695.956 608.122C696.245 607.966 696.563 607.85 696.911 607.774C697.262 607.695 697.615 607.632 697.97 607.585C698.434 607.526 698.81 607.481 699.099 607.451C699.39 607.418 699.602 607.363 699.735 607.287C699.871 607.211 699.939 607.078 699.939 606.889V606.849C699.939 606.359 699.805 605.978 699.536 605.706C699.271 605.434 698.868 605.298 698.328 605.298C697.768 605.298 697.329 605.421 697.01 605.666C696.692 605.911 696.469 606.173 696.339 606.452L695.226 606.054C695.425 605.59 695.69 605.229 696.021 604.97C696.356 604.708 696.72 604.526 697.115 604.423C697.513 604.317 697.904 604.264 698.288 604.264C698.533 604.264 698.815 604.294 699.133 604.354C699.455 604.41 699.765 604.528 700.063 604.707C700.365 604.886 700.615 605.156 700.814 605.517C701.013 605.878 701.112 606.362 701.112 606.969V612H699.939V610.966H699.879C699.8 611.132 699.667 611.309 699.481 611.498C699.296 611.687 699.049 611.848 698.741 611.98C698.432 612.113 698.056 612.179 697.612 612.179ZM697.791 611.125C698.255 611.125 698.646 611.034 698.964 610.852C699.286 610.669 699.528 610.434 699.69 610.146C699.856 609.857 699.939 609.554 699.939 609.236V608.162C699.889 608.222 699.78 608.276 699.611 608.326C699.445 608.372 699.253 608.414 699.034 608.45C698.818 608.483 698.608 608.513 698.403 608.54C698.2 608.563 698.036 608.583 697.91 608.599C697.605 608.639 697.32 608.704 697.055 608.793C696.793 608.879 696.581 609.01 696.419 609.186C696.26 609.358 696.18 609.594 696.18 609.892C696.18 610.3 696.331 610.608 696.633 610.817C696.938 611.022 697.324 611.125 697.791 611.125ZM703.254 612V604.364H704.387V605.517H704.467C704.606 605.139 704.858 604.833 705.222 604.597C705.587 604.362 705.998 604.244 706.455 604.244C706.541 604.244 706.649 604.246 706.778 604.249C706.908 604.253 707.005 604.258 707.072 604.264V605.457C707.032 605.447 706.941 605.433 706.798 605.413C706.659 605.389 706.512 605.378 706.356 605.378C705.985 605.378 705.653 605.456 705.362 605.612C705.073 605.764 704.844 605.976 704.675 606.248C704.51 606.516 704.427 606.823 704.427 607.168V612H703.254ZM715.502 612.159C714.786 612.159 714.17 611.99 713.653 611.652C713.136 611.314 712.738 610.848 712.46 610.255C712.181 609.662 712.042 608.984 712.042 608.222C712.042 607.446 712.185 606.762 712.47 606.168C712.758 605.572 713.159 605.106 713.673 604.771C714.19 604.433 714.793 604.264 715.482 604.264C716.019 604.264 716.503 604.364 716.934 604.562C717.365 604.761 717.718 605.04 717.993 605.398C718.268 605.756 718.439 606.173 718.505 606.651H717.332C717.242 606.303 717.044 605.994 716.735 605.726C716.43 605.454 716.019 605.318 715.502 605.318C715.045 605.318 714.644 605.437 714.299 605.676C713.958 605.911 713.691 606.245 713.499 606.675C713.31 607.103 713.215 607.605 713.215 608.182C713.215 608.772 713.308 609.286 713.494 609.723C713.683 610.161 713.948 610.5 714.289 610.742C714.634 610.984 715.038 611.105 715.502 611.105C715.807 611.105 716.084 611.052 716.333 610.946C716.581 610.84 716.792 610.688 716.964 610.489C717.136 610.29 717.259 610.051 717.332 609.773H718.505C718.439 610.223 718.275 610.629 718.013 610.991C717.754 611.349 717.411 611.634 716.984 611.846C716.56 612.055 716.066 612.159 715.502 612.159ZM723.323 612.159C722.633 612.159 722.028 611.995 721.508 611.667C720.991 611.339 720.587 610.88 720.295 610.29C720.007 609.7 719.862 609.01 719.862 608.222C719.862 607.426 720.007 606.732 720.295 606.138C720.587 605.545 720.991 605.085 721.508 604.756C722.028 604.428 722.633 604.264 723.323 604.264C724.012 604.264 724.615 604.428 725.132 604.756C725.653 605.085 726.057 605.545 726.345 606.138C726.637 606.732 726.783 607.426 726.783 608.222C726.783 609.01 726.637 609.7 726.345 610.29C726.057 610.88 725.653 611.339 725.132 611.667C724.615 611.995 724.012 612.159 723.323 612.159ZM723.323 611.105C723.846 611.105 724.277 610.971 724.615 610.702C724.953 610.434 725.204 610.081 725.366 609.643C725.528 609.206 725.61 608.732 725.61 608.222C725.61 607.711 725.528 607.236 725.366 606.795C725.204 606.354 724.953 605.998 724.615 605.726C724.277 605.454 723.846 605.318 723.323 605.318C722.799 605.318 722.368 605.454 722.03 605.726C721.692 605.998 721.442 606.354 721.279 606.795C721.117 607.236 721.036 607.711 721.036 608.222C721.036 608.732 721.117 609.206 721.279 609.643C721.442 610.081 721.692 610.434 722.03 610.702C722.368 610.971 722.799 611.105 723.323 611.105ZM729.747 607.406V612H728.574V604.364H729.707V605.557H729.807C729.986 605.169 730.258 604.857 730.622 604.622C730.987 604.384 731.457 604.264 732.034 604.264C732.551 604.264 733.004 604.37 733.391 604.582C733.779 604.791 734.081 605.109 734.296 605.537C734.512 605.961 734.619 606.498 734.619 607.148V612H733.446V607.227C733.446 606.627 733.29 606.16 732.979 605.825C732.667 605.487 732.24 605.318 731.696 605.318C731.321 605.318 730.987 605.399 730.692 605.562C730.4 605.724 730.17 605.961 730.001 606.273C729.832 606.584 729.747 606.962 729.747 607.406ZM740.084 604.364V605.358H736.127V604.364H740.084ZM737.28 602.534H738.454V609.812C738.454 610.144 738.502 610.393 738.598 610.558C738.697 610.721 738.823 610.83 738.976 610.886C739.131 610.939 739.296 610.966 739.468 610.966C739.597 610.966 739.703 610.959 739.786 610.946C739.869 610.929 739.935 610.916 739.985 610.906L740.224 611.96C740.144 611.99 740.033 612.02 739.89 612.05C739.748 612.083 739.567 612.099 739.349 612.099C739.017 612.099 738.692 612.028 738.374 611.886C738.059 611.743 737.797 611.526 737.589 611.234C737.383 610.943 737.28 610.575 737.28 610.131V602.534ZM744.096 612.179C743.613 612.179 743.173 612.088 742.779 611.906C742.385 611.72 742.071 611.453 741.839 611.105C741.607 610.754 741.491 610.33 741.491 609.832C741.491 609.395 741.577 609.04 741.75 608.768C741.922 608.493 742.153 608.278 742.441 608.122C742.729 607.966 743.047 607.85 743.395 607.774C743.747 607.695 744.1 607.632 744.454 607.585C744.918 607.526 745.295 607.481 745.583 607.451C745.875 607.418 746.087 607.363 746.219 607.287C746.355 607.211 746.423 607.078 746.423 606.889V606.849C746.423 606.359 746.289 605.978 746.02 605.706C745.755 605.434 745.353 605.298 744.812 605.298C744.252 605.298 743.813 605.421 743.495 605.666C743.177 605.911 742.953 606.173 742.824 606.452L741.71 606.054C741.909 605.59 742.174 605.229 742.506 604.97C742.84 604.708 743.205 604.526 743.599 604.423C743.997 604.317 744.388 604.264 744.773 604.264C745.018 604.264 745.3 604.294 745.618 604.354C745.939 604.41 746.249 604.528 746.547 604.707C746.849 604.886 747.099 605.156 747.298 605.517C747.497 605.878 747.596 606.362 747.596 606.969V612H746.423V610.966H746.363C746.284 611.132 746.151 611.309 745.966 611.498C745.78 611.687 745.533 611.848 745.225 611.98C744.917 612.113 744.541 612.179 744.096 612.179ZM744.275 611.125C744.739 611.125 745.131 611.034 745.449 610.852C745.77 610.669 746.012 610.434 746.175 610.146C746.34 609.857 746.423 609.554 746.423 609.236V608.162C746.373 608.222 746.264 608.276 746.095 608.326C745.929 608.372 745.737 608.414 745.518 608.45C745.303 608.483 745.092 608.513 744.887 608.54C744.685 608.563 744.521 608.583 744.395 608.599C744.09 608.639 743.805 608.704 743.54 608.793C743.278 608.879 743.066 609.01 742.903 609.186C742.744 609.358 742.665 609.594 742.665 609.892C742.665 610.3 742.815 610.608 743.117 610.817C743.422 611.022 743.808 611.125 744.275 611.125ZM750.593 612.08C750.348 612.08 750.137 611.992 749.962 611.816C749.786 611.64 749.698 611.43 749.698 611.185C749.698 610.939 749.786 610.729 749.962 610.553C750.137 610.378 750.348 610.29 750.593 610.29C750.838 610.29 751.049 610.378 751.224 610.553C751.4 610.729 751.488 610.939 751.488 611.185C751.488 611.347 751.446 611.496 751.364 611.632C751.284 611.768 751.176 611.877 751.04 611.96C750.908 612.04 750.759 612.08 750.593 612.08Z" fill="#495057"/>
<path d="M642.151 887.318L645.173 895.889H645.293L648.315 887.318H649.608L645.869 897.5H644.597L640.858 887.318H642.151ZM653.526 897.659C652.79 897.659 652.155 897.497 651.621 897.172C651.091 896.844 650.682 896.386 650.393 895.8C650.108 895.21 649.966 894.524 649.966 893.741C649.966 892.959 650.108 892.27 650.393 891.673C650.682 891.073 651.083 890.606 651.597 890.271C652.114 889.933 652.717 889.764 653.406 889.764C653.804 889.764 654.197 889.83 654.585 889.963C654.972 890.096 655.325 890.311 655.643 890.609C655.962 890.904 656.215 891.295 656.404 891.783C656.593 892.27 656.688 892.87 656.688 893.582V894.08H650.801V893.065H655.494C655.494 892.634 655.408 892.25 655.236 891.912C655.067 891.574 654.825 891.307 654.51 891.112C654.198 890.916 653.83 890.818 653.406 890.818C652.939 890.818 652.535 890.934 652.193 891.166C651.855 891.395 651.595 891.693 651.413 892.061C651.23 892.429 651.139 892.823 651.139 893.244V893.92C651.139 894.497 651.239 894.986 651.438 895.387C651.64 895.785 651.92 896.088 652.278 896.297C652.636 896.502 653.052 896.605 653.526 896.605C653.834 896.605 654.112 896.562 654.361 896.476C654.613 896.386 654.83 896.254 655.012 896.078C655.194 895.899 655.335 895.677 655.435 895.412L656.568 895.73C656.449 896.115 656.248 896.453 655.967 896.744C655.685 897.033 655.337 897.258 654.923 897.42C654.508 897.58 654.043 897.659 653.526 897.659ZM658.472 897.5V889.864H659.606V891.017H659.685C659.825 890.639 660.076 890.333 660.441 890.097C660.806 889.862 661.217 889.744 661.674 889.744C661.76 889.744 661.868 889.746 661.997 889.749C662.126 889.753 662.224 889.758 662.29 889.764V890.957C662.251 890.947 662.16 890.933 662.017 890.913C661.878 890.889 661.73 890.878 661.575 890.878C661.203 890.878 660.872 890.956 660.58 891.112C660.292 891.264 660.063 891.476 659.894 891.748C659.728 892.016 659.646 892.323 659.646 892.668V897.5H658.472ZM669.09 891.574L668.036 891.872C667.97 891.696 667.872 891.526 667.743 891.36C667.617 891.191 667.445 891.052 667.226 890.942C667.007 890.833 666.727 890.778 666.386 890.778C665.919 890.778 665.529 890.886 665.218 891.102C664.909 891.314 664.755 891.584 664.755 891.912C664.755 892.204 664.861 892.434 665.073 892.603C665.285 892.772 665.617 892.913 666.068 893.026L667.201 893.304C667.884 893.47 668.393 893.723 668.727 894.065C669.062 894.403 669.23 894.839 669.23 895.372C669.23 895.81 669.104 896.201 668.852 896.545C668.603 896.89 668.255 897.162 667.808 897.361C667.36 897.56 666.84 897.659 666.247 897.659C665.468 897.659 664.823 897.49 664.313 897.152C663.802 896.814 663.479 896.32 663.343 895.67L664.457 895.392C664.563 895.803 664.763 896.111 665.058 896.317C665.357 896.522 665.746 896.625 666.227 896.625C666.774 896.625 667.208 896.509 667.529 896.277C667.854 896.042 668.017 895.76 668.017 895.432C668.017 895.167 667.924 894.945 667.738 894.766C667.552 894.583 667.267 894.447 666.883 894.358L665.61 894.06C664.911 893.894 664.397 893.637 664.069 893.289C663.744 892.938 663.582 892.499 663.582 891.972C663.582 891.541 663.703 891.16 663.945 890.828C664.19 890.497 664.523 890.237 664.944 890.048C665.368 889.859 665.849 889.764 666.386 889.764C667.142 889.764 667.735 889.93 668.166 890.261C668.6 890.593 668.908 891.03 669.09 891.574ZM673.243 897.679C672.759 897.679 672.32 897.588 671.925 897.406C671.531 897.22 671.218 896.953 670.986 896.605C670.754 896.254 670.638 895.83 670.638 895.332C670.638 894.895 670.724 894.54 670.896 894.268C671.069 893.993 671.299 893.778 671.587 893.622C671.876 893.466 672.194 893.35 672.542 893.274C672.893 893.195 673.246 893.132 673.601 893.085C674.065 893.026 674.441 892.981 674.729 892.951C675.021 892.918 675.233 892.863 675.366 892.787C675.502 892.711 675.57 892.578 675.57 892.389V892.349C675.57 891.859 675.435 891.478 675.167 891.206C674.902 890.934 674.499 890.798 673.959 890.798C673.399 890.798 672.96 890.921 672.641 891.166C672.323 891.411 672.099 891.673 671.97 891.952L670.857 891.554C671.055 891.09 671.321 890.729 671.652 890.47C671.987 890.208 672.351 890.026 672.746 889.923C673.143 889.817 673.535 889.764 673.919 889.764C674.164 889.764 674.446 889.794 674.764 889.854C675.086 889.91 675.396 890.028 675.694 890.207C675.996 890.386 676.246 890.656 676.445 891.017C676.643 891.378 676.743 891.862 676.743 892.469V897.5H675.57V896.466H675.51C675.43 896.632 675.298 896.809 675.112 896.998C674.927 897.187 674.68 897.348 674.371 897.48C674.063 897.613 673.687 897.679 673.243 897.679ZM673.422 896.625C673.886 896.625 674.277 896.534 674.595 896.352C674.917 896.169 675.159 895.934 675.321 895.646C675.487 895.357 675.57 895.054 675.57 894.736V893.662C675.52 893.722 675.411 893.776 675.241 893.826C675.076 893.872 674.884 893.914 674.665 893.95C674.449 893.983 674.239 894.013 674.033 894.04C673.831 894.063 673.667 894.083 673.541 894.099C673.236 894.139 672.951 894.204 672.686 894.293C672.424 894.379 672.212 894.51 672.05 894.686C671.891 894.858 671.811 895.094 671.811 895.392C671.811 895.8 671.962 896.108 672.263 896.317C672.568 896.522 672.955 896.625 673.422 896.625ZM672.467 888.949L671.553 888.909C671.553 888.402 671.697 887.988 671.985 887.666C672.277 887.341 672.636 887.179 673.064 887.179C673.253 887.179 673.42 887.212 673.566 887.278C673.712 887.341 673.851 887.414 673.984 887.497C674.116 887.58 674.252 887.655 674.391 887.721C674.534 887.784 674.695 887.815 674.874 887.815C675.062 887.815 675.222 887.742 675.351 887.597C675.483 887.447 675.55 887.268 675.55 887.06L676.445 887.139C676.445 887.656 676.299 888.067 676.007 888.372C675.719 888.677 675.361 888.83 674.933 888.83C674.705 888.83 674.516 888.798 674.366 888.735C674.217 888.669 674.085 888.594 673.969 888.511C673.853 888.429 673.73 888.356 673.601 888.293C673.472 888.226 673.313 888.193 673.124 888.193C672.935 888.193 672.777 888.268 672.651 888.417C672.529 888.563 672.467 888.74 672.467 888.949ZM681.987 897.659C681.297 897.659 680.692 897.495 680.172 897.167C679.655 896.839 679.251 896.38 678.959 895.79C678.671 895.2 678.526 894.51 678.526 893.722C678.526 892.926 678.671 892.232 678.959 891.638C679.251 891.045 679.655 890.585 680.172 890.256C680.692 889.928 681.297 889.764 681.987 889.764C682.676 889.764 683.279 889.928 683.796 890.256C684.317 890.585 684.721 891.045 685.009 891.638C685.301 892.232 685.447 892.926 685.447 893.722C685.447 894.51 685.301 895.2 685.009 895.79C684.721 896.38 684.317 896.839 683.796 897.167C683.279 897.495 682.676 897.659 681.987 897.659ZM681.987 896.605C682.51 896.605 682.941 896.471 683.279 896.202C683.617 895.934 683.868 895.581 684.03 895.143C684.192 894.706 684.274 894.232 684.274 893.722C684.274 893.211 684.192 892.736 684.03 892.295C683.868 891.854 683.617 891.498 683.279 891.226C682.941 890.954 682.51 890.818 681.987 890.818C681.463 890.818 681.032 890.954 680.694 891.226C680.356 891.498 680.106 891.854 679.943 892.295C679.781 892.736 679.7 893.211 679.7 893.722C679.7 894.232 679.781 894.706 679.943 895.143C680.106 895.581 680.356 895.934 680.694 896.202C681.032 896.471 681.463 896.605 681.987 896.605ZM694.477 897.639C693.728 897.639 693.089 897.435 692.562 897.028C692.036 896.617 691.633 896.022 691.354 895.243C691.076 894.461 690.937 893.516 690.937 892.409C690.937 891.309 691.076 890.369 691.354 889.59C691.636 888.808 692.04 888.211 692.567 887.8C693.098 887.386 693.734 887.179 694.477 887.179C695.219 887.179 695.854 887.386 696.381 887.8C696.911 888.211 697.315 888.808 697.594 889.59C697.875 890.369 698.016 891.309 698.016 892.409C698.016 893.516 697.877 894.461 697.599 895.243C697.32 896.022 696.918 896.617 696.391 897.028C695.864 897.435 695.226 897.639 694.477 897.639ZM694.477 896.545C695.219 896.545 695.796 896.187 696.207 895.472C696.618 894.756 696.823 893.735 696.823 892.409C696.823 891.527 696.729 890.777 696.54 890.157C696.354 889.537 696.086 889.065 695.734 888.74C695.386 888.415 694.967 888.253 694.477 888.253C693.741 888.253 693.166 888.616 692.751 889.342C692.337 890.064 692.13 891.087 692.13 892.409C692.13 893.291 692.223 894.04 692.408 894.656C692.594 895.273 692.861 895.742 693.209 896.063C693.56 896.385 693.983 896.545 694.477 896.545ZM700.425 897.58C700.18 897.58 699.969 897.492 699.794 897.316C699.618 897.14 699.53 896.93 699.53 896.685C699.53 896.439 699.618 896.229 699.794 896.053C699.969 895.878 700.18 895.79 700.425 895.79C700.67 895.79 700.881 895.878 701.056 896.053C701.232 896.229 701.32 896.439 701.32 896.685C701.32 896.847 701.279 896.996 701.196 897.132C701.116 897.268 701.008 897.377 700.873 897.46C700.74 897.54 700.591 897.58 700.425 897.58ZM706.371 897.639C705.622 897.639 704.984 897.435 704.457 897.028C703.93 896.617 703.527 896.022 703.249 895.243C702.971 894.461 702.831 893.516 702.831 892.409C702.831 891.309 702.971 890.369 703.249 889.59C703.531 888.808 703.935 888.211 704.462 887.8C704.992 887.386 705.629 887.179 706.371 887.179C707.114 887.179 707.748 887.386 708.275 887.8C708.806 888.211 709.21 888.808 709.488 889.59C709.77 890.369 709.911 891.309 709.911 892.409C709.911 893.516 709.772 894.461 709.493 895.243C709.215 896.022 708.812 896.617 708.285 897.028C707.758 897.435 707.12 897.639 706.371 897.639ZM706.371 896.545C707.114 896.545 707.69 896.187 708.101 895.472C708.512 894.756 708.718 893.735 708.718 892.409C708.718 891.527 708.623 890.777 708.434 890.157C708.249 889.537 707.98 889.065 707.629 888.74C707.281 888.415 706.862 888.253 706.371 888.253C705.635 888.253 705.06 888.616 704.646 889.342C704.232 890.064 704.025 891.087 704.025 892.409C704.025 893.291 704.117 894.04 704.303 894.656C704.489 895.273 704.755 895.742 705.103 896.063C705.455 896.385 705.877 896.545 706.371 896.545ZM712.32 897.58C712.074 897.58 711.864 897.492 711.688 897.316C711.513 897.14 711.425 896.93 711.425 896.685C711.425 896.439 711.513 896.229 711.688 896.053C711.864 895.878 712.074 895.79 712.32 895.79C712.565 895.79 712.775 895.878 712.951 896.053C713.127 896.229 713.214 896.439 713.214 896.685C713.214 896.847 713.173 896.996 713.09 897.132C713.011 897.268 712.903 897.377 712.767 897.46C712.634 897.54 712.485 897.58 712.32 897.58ZM717.663 887.318V897.5H716.43V888.611H716.37L713.884 890.261V889.009L716.43 887.318H717.663ZM724.966 892.409C724.966 891.156 725.128 890.004 725.453 888.954C725.781 887.9 726.249 886.93 726.855 886.045H727.889C727.651 886.374 727.427 886.778 727.218 887.259C727.013 887.736 726.832 888.261 726.676 888.835C726.521 889.405 726.398 889.995 726.308 890.604C726.222 891.214 726.179 891.816 726.179 892.409C726.179 893.198 726.255 893.998 726.408 894.81C726.56 895.622 726.766 896.376 727.024 897.072C727.283 897.768 727.571 898.335 727.889 898.773H726.855C726.249 897.888 725.781 896.92 725.453 895.869C725.128 894.815 724.966 893.662 724.966 892.409ZM729.78 897.5V887.318H733.22C734.019 887.318 734.672 887.462 735.179 887.751C735.689 888.036 736.067 888.422 736.312 888.909C736.558 889.396 736.68 889.94 736.68 890.54C736.68 891.14 736.558 891.685 736.312 892.175C736.071 892.666 735.696 893.057 735.189 893.349C734.682 893.637 734.032 893.781 733.24 893.781H730.774V892.688H733.2C733.747 892.688 734.186 892.593 734.518 892.404C734.849 892.215 735.089 891.96 735.239 891.638C735.391 891.314 735.467 890.947 735.467 890.54C735.467 890.132 735.391 889.768 735.239 889.446C735.089 889.125 734.848 888.873 734.513 888.69C734.178 888.505 733.734 888.412 733.18 888.412H731.013V897.5H729.78ZM738.507 897.5V889.864H739.641V891.017H739.721C739.86 890.639 740.112 890.333 740.476 890.097C740.841 889.862 741.252 889.744 741.709 889.744C741.795 889.744 741.903 889.746 742.032 889.749C742.162 889.753 742.259 889.758 742.326 889.764V890.957C742.286 890.947 742.195 890.933 742.052 890.913C741.913 890.889 741.766 890.878 741.61 890.878C741.239 890.878 740.907 890.956 740.615 891.112C740.327 891.264 740.098 891.476 739.929 891.748C739.764 892.016 739.681 892.323 739.681 892.668V897.5H738.507ZM746.586 897.659C745.897 897.659 745.292 897.495 744.772 897.167C744.255 896.839 743.85 896.38 743.559 895.79C743.27 895.2 743.126 894.51 743.126 893.722C743.126 892.926 743.27 892.232 743.559 891.638C743.85 891.045 744.255 890.585 744.772 890.256C745.292 889.928 745.897 889.764 746.586 889.764C747.276 889.764 747.879 889.928 748.396 890.256C748.916 890.585 749.321 891.045 749.609 891.638C749.901 892.232 750.047 892.926 750.047 893.722C750.047 894.51 749.901 895.2 749.609 895.79C749.321 896.38 748.916 896.839 748.396 897.167C747.879 897.495 747.276 897.659 746.586 897.659ZM746.586 896.605C747.11 896.605 747.541 896.471 747.879 896.202C748.217 895.934 748.467 895.581 748.63 895.143C748.792 894.706 748.873 894.232 748.873 893.722C748.873 893.211 748.792 892.736 748.63 892.295C748.467 891.854 748.217 891.498 747.879 891.226C747.541 890.954 747.11 890.818 746.586 890.818C746.063 890.818 745.632 890.954 745.294 891.226C744.956 891.498 744.705 891.854 744.543 892.295C744.381 892.736 744.299 893.211 744.299 893.722C744.299 894.232 744.381 894.706 744.543 895.143C744.705 895.581 744.956 895.934 745.294 896.202C745.632 896.471 746.063 896.605 746.586 896.605ZM755.159 889.864V890.858H751.201V889.864H755.159ZM752.355 888.034H753.528V895.312C753.528 895.644 753.576 895.893 753.672 896.058C753.771 896.221 753.897 896.33 754.05 896.386C754.206 896.439 754.37 896.466 754.542 896.466C754.671 896.466 754.777 896.459 754.86 896.446C754.943 896.429 755.009 896.416 755.059 896.406L755.298 897.46C755.218 897.49 755.107 897.52 754.965 897.55C754.822 897.583 754.642 897.599 754.423 897.599C754.091 897.599 753.767 897.528 753.448 897.386C753.133 897.243 752.872 897.026 752.663 896.734C752.457 896.443 752.355 896.075 752.355 895.631V888.034ZM759.944 897.659C759.254 897.659 758.649 897.495 758.129 897.167C757.612 896.839 757.208 896.38 756.916 895.79C756.628 895.2 756.483 894.51 756.483 893.722C756.483 892.926 756.628 892.232 756.916 891.638C757.208 891.045 757.612 890.585 758.129 890.256C758.649 889.928 759.254 889.764 759.944 889.764C760.633 889.764 761.236 889.928 761.753 890.256C762.274 890.585 762.678 891.045 762.966 891.638C763.258 892.232 763.404 892.926 763.404 893.722C763.404 894.51 763.258 895.2 762.966 895.79C762.678 896.38 762.274 896.839 761.753 897.167C761.236 897.495 760.633 897.659 759.944 897.659ZM759.944 896.605C760.467 896.605 760.898 896.471 761.236 896.202C761.574 895.934 761.825 895.581 761.987 895.143C762.149 894.706 762.231 894.232 762.231 893.722C762.231 893.211 762.149 892.736 761.987 892.295C761.825 891.854 761.574 891.498 761.236 891.226C760.898 890.954 760.467 890.818 759.944 890.818C759.42 890.818 758.989 890.954 758.651 891.226C758.313 891.498 758.063 891.854 757.9 892.295C757.738 892.736 757.657 893.211 757.657 893.722C757.657 894.232 757.738 894.706 757.9 895.143C758.063 895.581 758.313 895.934 758.651 896.202C758.989 896.471 759.42 896.605 759.944 896.605ZM768.516 889.864V890.858H764.559V889.864H768.516ZM765.712 888.034H766.885V895.312C766.885 895.644 766.933 895.893 767.029 896.058C767.129 896.221 767.255 896.33 767.407 896.386C767.563 896.439 767.727 896.466 767.9 896.466C768.029 896.466 768.135 896.459 768.218 896.446C768.301 896.429 768.367 896.416 768.417 896.406L768.655 897.46C768.576 897.49 768.465 897.52 768.322 897.55C768.18 897.583 767.999 897.599 767.78 897.599C767.449 897.599 767.124 897.528 766.806 897.386C766.491 897.243 766.229 897.026 766.02 896.734C765.815 896.443 765.712 896.075 765.712 895.631V888.034ZM771.037 900.364C770.838 900.364 770.66 900.347 770.505 900.314C770.349 900.284 770.241 900.254 770.181 900.224L770.48 899.19C770.765 899.263 771.017 899.29 771.235 899.27C771.454 899.25 771.648 899.152 771.817 898.977C771.989 898.804 772.147 898.524 772.289 898.136L772.508 897.54L769.684 889.864H770.957L773.065 895.949H773.145L775.252 889.864H776.525L773.284 898.614C773.138 899.008 772.957 899.335 772.742 899.593C772.526 899.855 772.276 900.049 771.991 900.175C771.709 900.301 771.391 900.364 771.037 900.364ZM778.074 900.364V889.864H779.207V891.077H779.347C779.433 890.944 779.552 890.775 779.705 890.57C779.86 890.361 780.082 890.175 780.371 890.013C780.662 889.847 781.057 889.764 781.554 889.764C782.197 889.764 782.764 889.925 783.254 890.246C783.745 890.568 784.128 891.024 784.403 891.614C784.678 892.204 784.815 892.9 784.815 893.702C784.815 894.51 784.678 895.211 784.403 895.805C784.128 896.395 783.746 896.852 783.259 897.177C782.772 897.498 782.21 897.659 781.574 897.659C781.083 897.659 780.691 897.578 780.396 897.415C780.101 897.25 779.874 897.062 779.714 896.854C779.555 896.642 779.433 896.466 779.347 896.327H779.247V900.364H778.074ZM779.227 893.682C779.227 894.259 779.312 894.767 779.481 895.208C779.65 895.646 779.897 895.989 780.222 896.237C780.546 896.482 780.944 896.605 781.415 896.605C781.905 896.605 782.315 896.476 782.643 896.217C782.974 895.955 783.223 895.604 783.388 895.163C783.558 894.719 783.642 894.225 783.642 893.682C783.642 893.145 783.559 892.661 783.393 892.23C783.231 891.796 782.984 891.453 782.653 891.201C782.325 890.946 781.912 890.818 781.415 890.818C780.938 890.818 780.536 890.939 780.212 891.181C779.887 891.42 779.642 891.754 779.476 892.185C779.31 892.613 779.227 893.112 779.227 893.682ZM789.807 897.659C789.071 897.659 788.436 897.497 787.903 897.172C787.372 896.844 786.963 896.386 786.675 895.8C786.39 895.21 786.247 894.524 786.247 893.741C786.247 892.959 786.39 892.27 786.675 891.673C786.963 891.073 787.364 890.606 787.878 890.271C788.395 889.933 788.998 889.764 789.688 889.764C790.085 889.764 790.478 889.83 790.866 889.963C791.254 890.096 791.607 890.311 791.925 890.609C792.243 890.904 792.496 891.295 792.685 891.783C792.874 892.27 792.969 892.87 792.969 893.582V894.08H787.082V893.065H791.776C791.776 892.634 791.689 892.25 791.517 891.912C791.348 891.574 791.106 891.307 790.791 891.112C790.48 890.916 790.112 890.818 789.688 890.818C789.22 890.818 788.816 890.934 788.474 891.166C788.136 891.395 787.876 891.693 787.694 892.061C787.512 892.429 787.42 892.823 787.42 893.244V893.92C787.42 894.497 787.52 894.986 787.719 895.387C787.921 895.785 788.201 896.088 788.559 896.297C788.917 896.502 789.333 896.605 789.807 896.605C790.115 896.605 790.393 896.562 790.642 896.476C790.894 896.386 791.111 896.254 791.293 896.078C791.476 895.899 791.616 895.677 791.716 895.412L792.849 895.73C792.73 896.115 792.53 896.453 792.248 896.744C791.966 897.033 791.618 897.258 791.204 897.42C790.79 897.58 790.324 897.659 789.807 897.659ZM797.259 893.205C797.259 894.457 797.095 895.611 796.767 896.665C796.442 897.715 795.977 898.683 795.37 899.568H794.336C794.575 899.24 794.797 898.836 795.002 898.355C795.211 897.878 795.393 897.354 795.549 896.784C795.705 896.211 795.826 895.619 795.912 895.009C796.001 894.396 796.046 893.795 796.046 893.205C796.046 892.416 795.97 891.615 795.817 890.803C795.665 889.991 795.46 889.237 795.201 888.541C794.942 887.845 794.654 887.278 794.336 886.841H795.37C795.977 887.726 796.442 888.695 796.767 889.749C797.095 890.8 797.259 891.952 797.259 893.205Z" fill="#868E96"/>
</g>
<defs>
<clipPath id="clip0_2_30">
<rect width="1440" height="960" fill="white"/>
</clipPath>
<clipPath id="clip1_2_30">
<rect width="196" height="47" fill="white" transform="translate(622 89)"/>
</clipPath>
</defs>
</svg>
